<svg xmlns="http://www.w3.org/2000/svg" viewBox="0 0 80 80">
  <path d="M40 4C37.052633 4 34.698522 6.1897314 34.203125 9L29 9L28 9L18 9C16.35503 9 15 10.35503 15 12L15 68C15 69.64497 16.35503 71 18 71L62 71C63.64497 71 65 69.64497 65 68L65 12C65 10.35503 63.64497 9 62 9L52 9L51 9L45.796875 9C45.301478 6.1897314 42.947367 4 40 4 z M 40 6C42.220375 6 44 7.7796254 44 10L44 11L45 11L50 11L50 14C50 14.56503 49.56503 15 49 15L31 15C30.43497 15 30 14.56503 30 14L30 11L36 11L36 10C36 7.7796254 37.779625 6 40 6 z M 40 9 A 1 1 0 0 0 39 10 A 1 1 0 0 0 40 11 A 1 1 0 0 0 41 10 A 1 1 0 0 0 40 9 z M 18 11L28 11L28 14C28 15.64497 29.35503 17 31 17L49 17C50.64497 17 52 15.64497 52 14L52 11L62 11C62.56503 11 63 11.43497 63 12L63 68C63 68.56503 62.56503 69 62 69L18 69C17.43497 69 17 68.56503 17 68L17 12C17 11.43497 17.43497 11 18 11 z M 22 15 A 1 1 0 0 0 21 16 A 1 1 0 0 0 22 17 A 1 1 0 0 0 23 16 A 1 1 0 0 0 22 15 z M 26 15 A 1 1 0 0 0 25 16 A 1 1 0 0 0 26 17 A 1 1 0 0 0 27 16 A 1 1 0 0 0 26 15 z M 54 15 A 1 1 0 0 0 53 16 A 1 1 0 0 0 54 17 A 1 1 0 0 0 55 16 A 1 1 0 0 0 54 15 z M 58 15 A 1 1 0 0 0 57 16 A 1 1 0 0 0 58 17 A 1 1 0 0 0 59 16 A 1 1 0 0 0 58 15 z M 22 19 A 1 1 0 0 0 21 20 A 1 1 0 0 0 22 21 A 1 1 0 0 0 23 20 A 1 1 0 0 0 22 19 z M 58 19 A 1 1 0 0 0 57 20 A 1 1 0 0 0 58 21 A 1 1 0 0 0 59 20 A 1 1 0 0 0 58 19 z M 22 23 A 1 1 0 0 0 21 24 A 1 1 0 0 0 22 25 A 1 1 0 0 0 23 24 A 1 1 0 0 0 22 23 z M 58 23 A 1 1 0 0 0 57 24 A 1 1 0 0 0 58 25 A 1 1 0 0 0 59 24 A 1 1 0 0 0 58 23 z M 22 27 A 1 1 0 0 0 21 28 A 1 1 0 0 0 22 29 A 1 1 0 0 0 23 28 A 1 1 0 0 0 22 27 z M 58 27 A 1 1 0 0 0 57 28 A 1 1 0 0 0 58 29 A 1 1 0 0 0 59 28 A 1 1 0 0 0 58 27 z M 47.189453 29.005859C45.892907 29.005859 44.594844 29.498906 43.611328 30.482422L31.201172 42.890625L27.451172 52.640625C27.235851 53.202206 27.407782 53.837474 27.785156 54.214844C28.162526 54.592214 28.799667 54.764245 29.361328 54.546875L39.109375 50.798828L51.519531 38.388672C53.486562 36.421641 53.486562 33.203359 51.519531 31.236328L50.765625 30.482422C49.78211 29.498906 48.485999 29.005859 47.189453 29.005859 z M 47.189453 30.994141C47.969907 30.994141 48.750078 31.295 49.351562 31.896484L50.105469 32.650391C51.308438 33.85336 51.308438 35.77164 50.105469 36.974609L49.564453 37.515625L44.484375 32.4375L45.025391 31.896484C45.626875 31.295 46.408999 30.994141 47.189453 30.994141 z M 22 31 A 1 1 0 0 0 21 32 A 1 1 0 0 0 22 33 A 1 1 0 0 0 23 32 A 1 1 0 0 0 22 31 z M 58 31 A 1 1 0 0 0 57 32 A 1 1 0 0 0 58 33 A 1 1 0 0 0 59 32 A 1 1 0 0 0 58 31 z M 43.070312 33.851562L48.148438 38.929688L39.164062 47.914062C39.012248 47.534464 38.794503 47.148018 38.447266 46.800781C37.805709 46.159224 37.021916 45.938037 36.414062 45.816406C36.300576 45.793696 36.310524 45.807909 36.207031 45.792969C36.192051 45.689476 36.206305 45.699429 36.183594 45.585938C36.061963 44.978082 35.840776 44.194291 35.199219 43.552734C34.851982 43.205497 34.465536 42.987752 34.085938 42.835938L43.070312 33.851562 z M 22 35 A 1 1 0 0 0 21 36 A 1 1 0 0 0 22 37 A 1 1 0 0 0 23 36 A 1 1 0 0 0 22 35 z M 58 35 A 1 1 0 0 0 57 36 A 1 1 0 0 0 58 37 A 1 1 0 0 0 59 36 A 1 1 0 0 0 58 35 z M 22 39 A 1 1 0 0 0 21 40 A 1 1 0 0 0 22 41 A 1 1 0 0 0 23 40 A 1 1 0 0 0 22 39 z M 58 39 A 1 1 0 0 0 57 40 A 1 1 0 0 0 58 41 A 1 1 0 0 0 59 40 A 1 1 0 0 0 58 39 z M 22 43 A 1 1 0 0 0 21 44 A 1 1 0 0 0 22 45 A 1 1 0 0 0 23 44 A 1 1 0 0 0 22 43 z M 58 43 A 1 1 0 0 0 57 44 A 1 1 0 0 0 58 45 A 1 1 0 0 0 59 44 A 1 1 0 0 0 58 43 z M 32.716797 44.521484C32.739382 44.525625 32.752135 44.524643 32.775391 44.529297C33.182037 44.610667 33.614713 44.796354 33.785156 44.966797C33.955599 45.13724 34.141287 45.571869 34.222656 45.978516C34.304026 46.385162 34.304688 46.695313 34.304688 46.695312L34.304688 47.695312L35.304688 47.695312C35.304688 47.695312 35.614838 47.695976 36.021484 47.777344C36.428131 47.858714 36.86276 48.044401 37.033203 48.214844C37.203646 48.385287 37.389334 48.817963 37.470703 49.224609C37.475204 49.247104 37.474495 49.259382 37.478516 49.28125L31.914062 51.421875L30.576172 50.083984L32.716797 44.521484 z M 22 47 A 1 1 0 0 0 21 48 A 1 1 0 0 0 22 49 A 1 1 0 0 0 23 48 A 1 1 0 0 0 22 47 z M 58 47 A 1 1 0 0 0 57 48 A 1 1 0 0 0 58 49 A 1 1 0 0 0 59 48 A 1 1 0 0 0 58 47 z M 22 51 A 1 1 0 0 0 21 52 A 1 1 0 0 0 22 53 A 1 1 0 0 0 23 52 A 1 1 0 0 0 22 51 z M 58 51 A 1 1 0 0 0 57 52 A 1 1 0 0 0 58 53 A 1 1 0 0 0 59 52 A 1 1 0 0 0 58 51 z M 22 55 A 1 1 0 0 0 21 56 A 1 1 0 0 0 22 57 A 1 1 0 0 0 23 56 A 1 1 0 0 0 22 55 z M 58 55 A 1 1 0 0 0 57 56 A 1 1 0 0 0 58 57 A 1 1 0 0 0 59 56 A 1 1 0 0 0 58 55 z M 22 59 A 1 1 0 0 0 21 60 A 1 1 0 0 0 22 61 A 1 1 0 0 0 23 60 A 1 1 0 0 0 22 59 z M 58 59 A 1 1 0 0 0 57 60 A 1 1 0 0 0 58 61 A 1 1 0 0 0 59 60 A 1 1 0 0 0 58 59 z M 22 63 A 1 1 0 0 0 21 64 A 1 1 0 0 0 22 65 A 1 1 0 0 0 23 64 A 1 1 0 0 0 22 63 z M 26 63 A 1 1 0 0 0 25 64 A 1 1 0 0 0 26 65 A 1 1 0 0 0 27 64 A 1 1 0 0 0 26 63 z M 30 63 A 1 1 0 0 0 29 64 A 1 1 0 0 0 30 65 A 1 1 0 0 0 31 64 A 1 1 0 0 0 30 63 z M 34 63 A 1 1 0 0 0 33 64 A 1 1 0 0 0 34 65 A 1 1 0 0 0 35 64 A 1 1 0 0 0 34 63 z M 38 63 A 1 1 0 0 0 37 64 A 1 1 0 0 0 38 65 A 1 1 0 0 0 39 64 A 1 1 0 0 0 38 63 z M 42 63 A 1 1 0 0 0 41 64 A 1 1 0 0 0 42 65 A 1 1 0 0 0 43 64 A 1 1 0 0 0 42 63 z M 46 63 A 1 1 0 0 0 45 64 A 1 1 0 0 0 46 65 A 1 1 0 0 0 47 64 A 1 1 0 0 0 46 63 z M 50 63 A 1 1 0 0 0 49 64 A 1 1 0 0 0 50 65 A 1 1 0 0 0 51 64 A 1 1 0 0 0 50 63 z M 54 63 A 1 1 0 0 0 53 64 A 1 1 0 0 0 54 65 A 1 1 0 0 0 55 64 A 1 1 0 0 0 54 63 z M 58 63 A 1 1 0 0 0 57 64 A 1 1 0 0 0 58 65 A 1 1 0 0 0 59 64 A 1 1 0 0 0 58 63 z" fill="#EFF4F9" />
</svg>