<svg xmlns="http://www.w3.org/2000/svg" viewBox="0 0 100 100"><path fill="#f15b6c" d="M17,25h-2c-2.209,0-4,1.791-4,4v44c0,2.209,1.791,4,4,4h30c0,0,1,3,5.5,3s5.5-3,5.5-3h30c2.209,0,4-1.791,4-4V29c0-2.209-1.791-4-4-4h-2H17z"/><path fill="#565fa1" d="M45.5,72.5c0,0,1,3,5,3s5-3,5-3"/><path fill="#1f212b" d="M50.5,76c-4.311,0-5.429-3.205-5.475-3.342c-0.087-0.262,0.055-0.545,0.316-0.633c0.263-0.087,0.544,0.054,0.632,0.314l0,0C46.011,72.448,46.931,75,50.5,75c3.598,0,4.517-2.632,4.525-2.658c0.089-0.262,0.372-0.403,0.633-0.316c0.262,0.088,0.403,0.371,0.316,0.633C55.929,72.795,54.811,76,50.5,76z"/><path fill="#fefdef" d="M85.5,27.5v45h-70v-45l5-8c22,0,30,6,30,6s8-6,30-6L85.5,27.5z"/><path fill="#ceccbe" d="M15.5,72.5h35c0,0-8-6-30-6L15.5,72.5z"/><path fill="#fefdef" d="M20.5,19.5c22,0,30,6,30,6s8-6,30-6v47c-22,0-30,6-30,6s-8-6-30-6V19.5z"/><path fill="#ceccbe" d="M85.5,73h-35c-0.215,0-0.406-0.138-0.475-0.342c-0.067-0.204,0.002-0.429,0.175-0.559c0.332-0.249,8.385-6.1,30.3-6.1c0.148,0,0.289,0.065,0.384,0.18l5,6c0.125,0.149,0.151,0.356,0.069,0.532C85.87,72.888,85.694,73,85.5,73z"/><rect width="1" height="7.81" x="82.5" y="65.595" fill="#1f212b" transform="rotate(-39.807 82.996 69.5)"/><rect width="7.81" height="1" x="14.095" y="69" fill="#1f212b" transform="rotate(-50.149 18.003 69.504)"/><path fill="#1f212b" d="M45.5,50.599c-0.057,0-0.115-0.01-0.172-0.03c-5.427-1.983-11.771-3.184-18.855-3.569c-0.275-0.015-0.487-0.25-0.472-0.526c0.016-0.275,0.218-0.5,0.526-0.472c7.183,0.391,13.624,1.611,19.145,3.628c0.259,0.095,0.393,0.382,0.298,0.642C45.896,50.473,45.704,50.599,45.5,50.599z"/><path fill="#1f212b" d="M55.5,29.599c-0.204,0-0.396-0.126-0.47-0.328c-0.095-0.26,0.039-0.547,0.298-0.642c5.521-2.017,11.962-3.237,19.145-3.628c0.306-0.021,0.512,0.196,0.526,0.472c0.016,0.276-0.196,0.512-0.472,0.526c-7.085,0.386-13.429,1.586-18.855,3.569C55.615,29.589,55.557,29.599,55.5,29.599z"/><path fill="#1f212b" d="M45.5,36.599c-0.057,0-0.115-0.01-0.172-0.03c-5.427-1.983-11.771-3.184-18.855-3.569c-0.275-0.015-0.487-0.25-0.472-0.526c0.016-0.275,0.218-0.501,0.526-0.472c7.183,0.391,13.624,1.611,19.145,3.628c0.259,0.095,0.393,0.382,0.298,0.642C45.896,36.473,45.704,36.599,45.5,36.599z"/><path fill="#1f212b" d="M45.5,64.599c-0.057,0-0.115-0.01-0.172-0.03c-5.427-1.983-11.771-3.184-18.855-3.569c-0.275-0.015-0.487-0.25-0.472-0.526c0.016-0.275,0.218-0.498,0.526-0.472c7.183,0.391,13.624,1.611,19.145,3.628c0.259,0.095,0.393,0.382,0.298,0.642C45.896,64.473,45.704,64.599,45.5,64.599z"/><path fill="#1f212b" d="M42.5,28.609c-0.047,0-0.095-0.007-0.143-0.021c-0.962-0.287-1.963-0.554-2.973-0.794c-0.269-0.063-0.436-0.333-0.371-0.602c0.063-0.27,0.335-0.438,0.602-0.371c1.029,0.244,2.048,0.517,3.027,0.808c0.265,0.079,0.415,0.357,0.337,0.622C42.915,28.469,42.716,28.609,42.5,28.609z"/><path fill="#1f212b" d="M45.5,29.599c-0.057,0-0.115-0.01-0.172-0.03c-0.312-0.114-0.646-0.231-0.989-0.348c-0.261-0.089-0.401-0.373-0.313-0.635c0.09-0.262,0.372-0.397,0.635-0.313c0.352,0.12,0.691,0.239,1.011,0.355c0.259,0.095,0.393,0.382,0.298,0.642C45.896,29.473,45.704,29.599,45.5,29.599z"/><path fill="#1f212b" d="M36.501,27.171c-0.031,0-0.062-0.003-0.093-0.009c-3.117-0.583-6.46-0.975-9.936-1.163c-0.275-0.015-0.487-0.25-0.472-0.526c0.016-0.275,0.24-0.492,0.526-0.472c3.519,0.19,6.905,0.587,10.064,1.179c0.271,0.051,0.45,0.312,0.399,0.583C36.946,27.003,36.736,27.171,36.501,27.171z"/><path fill="#1f212b" d="M45.5,43.599c-0.057,0-0.115-0.01-0.172-0.03c-3.029-1.106-6.364-1.977-9.913-2.585c-0.271-0.047-0.454-0.306-0.408-0.578c0.047-0.271,0.301-0.457,0.578-0.408c3.607,0.619,7.001,1.505,10.087,2.632c0.259,0.095,0.393,0.382,0.298,0.642C45.896,43.473,45.704,43.599,45.5,43.599z"/><path fill="#1f212b" d="M31.501,40.421c-0.02,0-0.039-0.001-0.058-0.003c-1.631-0.188-3.303-0.328-4.971-0.419c-0.275-0.015-0.487-0.25-0.472-0.526c0.016-0.275,0.218-0.493,0.526-0.472c1.688,0.092,3.38,0.233,5.029,0.423c0.274,0.032,0.472,0.279,0.44,0.554C31.968,40.232,31.751,40.421,31.501,40.421z"/><path fill="#1f212b" d="M45.5,57.599c-0.057,0-0.115-0.01-0.172-0.03c-0.957-0.35-1.957-0.68-2.97-0.979c-0.266-0.078-0.416-0.356-0.338-0.621c0.079-0.265,0.358-0.413,0.621-0.338c1.033,0.307,2.053,0.643,3.03,0.999c0.259,0.095,0.393,0.382,0.298,0.642C45.896,57.473,45.704,57.599,45.5,57.599z"/><path fill="#1f212b" d="M38.5,55.579c-0.035,0-0.071-0.004-0.107-0.012c-3.676-0.811-7.686-1.338-11.92-1.568c-0.275-0.015-0.487-0.25-0.472-0.526c0.016-0.275,0.218-0.491,0.526-0.472c4.287,0.232,8.352,0.768,12.08,1.59c0.27,0.06,0.44,0.326,0.381,0.596C38.937,55.42,38.73,55.579,38.5,55.579z"/><path fill="#1f212b" d="M65.499,33.99c-0.238,0-0.45-0.172-0.492-0.415c-0.047-0.272,0.136-0.531,0.408-0.578c0.954-0.164,1.964-0.314,3.021-0.45c0.269-0.038,0.524,0.157,0.56,0.433c0.035,0.273-0.158,0.524-0.433,0.56c-1.042,0.134-2.038,0.282-2.979,0.444C65.556,33.988,65.527,33.99,65.499,33.99z"/><path fill="#1f212b" d="M55.5,36.599c-0.204,0-0.396-0.126-0.47-0.328c-0.095-0.26,0.039-0.547,0.298-0.642c1.899-0.693,3.937-1.302,6.056-1.807c0.271-0.067,0.538,0.102,0.603,0.37s-0.102,0.538-0.37,0.603c-2.082,0.496-4.082,1.093-5.944,1.773C55.615,36.589,55.557,36.599,55.5,36.599z"/><path fill="#1f212b" d="M86,24h-2.688l1.25,2H86c1.654,0,3,1.346,3,3v44c0,1.654-1.346,3-3,3H56c-0.421,0-0.801,0.276-0.944,0.672C55.021,76.767,54.166,79,50.5,79s-4.521-2.233-4.552-2.316C45.813,76.275,45.431,76,45,76H15c-1.654,0-3-1.346-3-3V29c0-1.654,1.346-3,3-3h1.437l1.25-2H15c-2.757,0-5,2.243-5,5v44c0,2.757,2.243,5,5,5h29.381c0.631,1.067,2.302,3,6.119,3s5.488-1.933,6.119-3H86c2.757,0,5-2.243,5-5V29C91,26.243,88.757,24,86,24z"/><path fill="#1f212b" d="M50.5,60c-0.276,0-0.5-0.224-0.5-0.5v-34c0-0.276,0.224-0.5,0.5-0.5s0.5,0.224,0.5,0.5v34C51,59.776,50.776,60,50.5,60z"/><path fill="#1f212b" d="M50.5,69c-0.276,0-0.5-0.224-0.5-0.5v-1c0-0.276,0.224-0.5,0.5-0.5s0.5,0.224,0.5,0.5v1C51,68.776,50.776,69,50.5,69z"/><path fill="#1f212b" d="M50.5,65c-0.276,0-0.5-0.224-0.5-0.5v-2c0-0.276,0.224-0.5,0.5-0.5s0.5,0.224,0.5,0.5v2C51,64.776,50.776,65,50.5,65z"/><path fill="#1f212b" d="M85.5,73h-70c-0.276,0-0.5-0.224-0.5-0.5v-45c0-0.094,0.026-0.186,0.076-0.265l5-8l0.848,0.529L16,27.644V72h69V27.644l-4.924-7.879l0.848-0.529l5,8C85.974,27.314,86,27.406,86,27.5v45C86,72.776,85.776,73,85.5,73z"/><path fill="#52bfa1" d="M94.437,81.437L94.437,81.437c-2.525,2.525-5.825,3.319-7.37,1.774L64.929,61.07L60,47.703L60.703,47l13.367,4.93l22.141,22.137C97.756,75.613,96.962,78.912,94.437,81.437"/><polygon fill="#fefdef" points="74.07,51.93 60.703,47 60,47.703 64.929,61.07"/><path fill="#f37e98" d="M96.211,74.067l-1.786-1.785l-9.144,9.144l1.786,1.786c1.546,1.546,4.845,0.751,7.37-1.774C96.962,78.912,97.756,75.613,96.211,74.067z"/><polygon fill="#7a91c9" points="81.942,78.057 91.071,68.928 94.425,72.282 85.281,81.426"/><rect width="12.91" height="2" x="80.052" y="72.493" fill="#1f212b" transform="rotate(-45.001 86.506 73.494)"/><rect width="12.33" height="2" x="62.944" y="55.109" fill="#1f212b" transform="rotate(-45.001 69.109 56.11)"/><rect width="5.1" height="1" x="60.949" y="50" fill="#1f212b" transform="rotate(-45.001 63.5 50.5)"/><polygon fill="#1f212b" points="60,47.703 60.703,47 65.303,48.697 61.696,52.303"/><path fill="#1f212b" d="M85,75.5c-0.128,0-0.256-0.049-0.354-0.146l-12.5-12.5c-0.195-0.195-0.195-0.512,0-0.707s0.512-0.195,0.707,0l12.5,12.5c0.195,0.195,0.195,0.512,0,0.707C85.255,75.451,85.127,75.5,85,75.5z"/><path fill="#1f212b" d="M88,72.5c-0.128,0-0.256-0.049-0.354-0.146L70.255,54.963c-0.195-0.195-0.195-0.512,0-0.707s0.512-0.195,0.707,0l17.391,17.391c0.195,0.195,0.195,0.512,0,0.707C88.255,72.451,88.127,72.5,88,72.5z"/><path fill="#1f212b" d="M70.5,61c-0.128,0-0.256-0.049-0.354-0.146l-1-1c-0.195-0.195-0.195-0.512,0-0.707s0.512-0.195,0.707,0l1,1c0.195,0.195,0.195,0.512,0,0.707C70.755,60.951,70.627,61,70.5,61z"/><path fill="#1f212b" d="M88.5,78c-0.128,0-0.256-0.049-0.354-0.146c-0.195-0.195-0.195-0.512,0-0.707l5.572-5.572c0.195-0.195,0.512-0.195,0.707,0s0.195,0.512,0,0.707l-5.572,5.572C88.755,77.951,88.627,78,88.5,78z"/><path fill="#1f212b" d="M89.198,85.002c-1.113,0-2.107-0.352-2.839-1.083L64.222,61.777c-0.103-0.102-0.181-0.226-0.231-0.361l-4.93-13.367c-0.135-0.366-0.045-0.777,0.231-1.053l0.703-0.703c0.275-0.276,0.686-0.368,1.053-0.231l13.367,4.93c0.135,0.05,0.259,0.128,0.361,0.231L96.918,73.36c1.966,1.966,1.187,5.824-1.774,8.785l0,0l0,0C93.286,84.003,91.074,85.002,89.198,85.002z M65.792,60.519l21.982,21.986c0.99,0.989,3.679,0.503,5.957-1.774l0,0c2.278-2.278,2.763-4.967,1.774-5.957L73.518,52.792l-12.241-4.514L65.792,60.519z"/><path fill="#1f212b" d="M84.928,81.572c-0.128,0-0.256-0.049-0.354-0.146c-0.195-0.195-0.195-0.512,0-0.707l1.572-1.572c0.195-0.195,0.512-0.195,0.707,0s0.195,0.512,0,0.707l-1.572,1.572C85.184,81.523,85.056,81.572,84.928,81.572z"/><path fill="#1f212b" d="M57.257,70c-0.212,0-0.41-0.136-0.477-0.35c-0.083-0.263,0.063-0.544,0.326-0.627c2.196-0.694,4.655-1.282,7.307-1.749c0.269-0.047,0.531,0.134,0.579,0.406c0.047,0.272-0.134,0.531-0.406,0.579c-2.609,0.458-5.024,1.036-7.179,1.716C57.357,69.993,57.307,70,57.257,70z"/><path fill="#1f212b" d="M50.5,73c-0.104,0-0.209-0.032-0.299-0.099C50.122,72.841,42.024,67,20.5,67c-0.276,0-0.5-0.224-0.5-0.5v-47c0-0.276,0.224-0.5,0.5-0.5c19.868,0,28.343,4.809,30,5.893C52.157,23.809,60.632,19,80.5,19c0.276,0,0.5,0.224,0.5,0.5v34c0,0.276-0.224,0.5-0.5,0.5S80,53.776,80,53.5V20.001C58.849,20.09,50.878,25.842,50.799,25.9c-0.178,0.132-0.421,0.132-0.599,0c-0.079-0.059-8.049-5.81-29.201-5.899v46c21.538,0.088,29.47,5.852,29.8,6.099c0.221,0.166,0.266,0.478,0.101,0.699C50.802,72.93,50.652,73,50.5,73z"/></svg>