<svg xmlns="http://www.w3.org/2000/svg" viewBox="0 0 48 48">
  <path d="M10.5 5C8.0324991 5 6 7.0324991 6 9.5L6 31.5C6 33.967501 8.0324991 36 10.5 36L15.994141 36L15.994141 33L10.5 33C9.6535009 33 9 32.346499 9 31.5L9 31L16 31L16 28L9 28L9 9.5C9 8.6535009 9.6535009 8 10.5 8L25.5 8C26.346499 8 27 8.6535009 27 9.5L27 10L30 10L30 9.5C30 7.0324991 27.967501 5 25.5 5L10.5 5 z M 22.5 12C20.032499 12 18 14.032499 18 16.5L18 36.253906 A 1.50015 1.50015 0 0 0 18 36.740234L18 38.5C18 40.967501 20.032499 43 22.5 43L40.5 43 A 1.50015 1.50015 0 1 0 40.5 40L22.5 40C21.653501 40 21 39.346499 21 38.5L21 38L40.5 38 A 1.50015 1.50015 0 0 0 42 36.5L42 16.5C42 14.032499 39.967501 12 37.5 12L22.5 12 z M 13.5 13C12.671 13 12 13.671 12 14.5C12 15.329 12.671 16 13.5 16L16.025391 16C16.110391 14.901 16.46625 13.879 17.03125 13L13.5 13 z M 22.5 15L37.5 15C38.346499 15 39 15.653501 39 16.5L39 35L21 35L21 16.5C21 15.653501 21.653501 15 22.5 15 z M 25.5 20 A 1.50015 1.50015 0 1 0 25.5 23L34.5 23 A 1.50015 1.50015 0 1 0 34.5 20L25.5 20 z" fill="#EFF4F9" />
</svg>