<svg xmlns="http://www.w3.org/2000/svg" viewBox="0 0 32 32">
  <path d="M9 4C6.800781 4 5 5.800781 5 8L5 13L3 13L3 16L5 16L5 27C5 27.550781 5.449219 28 6 28L9 28L9.34375 27L22.65625 27L23 28L26 28C26.550781 28 27 27.550781 27 27L27 16L29 16L29 13L27 13L27 8C27 5.800781 25.199219 4 23 4 Z M 9 6L23 6C24.117188 6 25 6.882813 25 8L7 8C7 6.882813 7.882813 6 9 6 Z M 7 10L15 10L15 17L7 17 Z M 17 10L25 10L25 17L17 17 Z M 7 19L25 19L25 25L7 25 Z M 8 21L8 23L12 23L12 21 Z M 20 21L20 23L24 23L24 21Z" fill="#EFF4F9" />
</svg>