<svg width="22" height="23" viewBox="0 0 22 23" fill="none" xmlns="http://www.w3.org/2000/svg">
<path fill-rule="evenodd" clip-rule="evenodd" d="M2.0625 2.2627C3.3831 0.942098 5.17421 0.200195 7.04182 0.200195H14.9582C16.8258 0.200195 18.6169 0.942098 19.9375 2.2627C21.2581 3.58329 22 5.37441 22 7.24201V15.1584C22 17.026 21.2581 18.8171 19.9375 20.1377C18.6169 21.4583 16.8258 22.2002 14.9582 22.2002H7.04182C5.17421 22.2002 3.3831 21.4583 2.0625 20.1377C0.741903 18.8171 0 17.026 0 15.1584V7.24201C0 5.37441 0.741903 3.58329 2.0625 2.2627Z" fill="#3DD598"/>
<path d="M7.0788 9.8127C6.55272 9.2806 5.70527 9.28623 5.18597 9.82526C4.66666 10.3643 4.67215 11.2326 5.19822 11.7647L8.59919 15.2046C9.1587 15.7705 10.0715 15.7228 10.5719 15.1014L16.094 8.24431C16.5644 7.6601 16.4836 6.79571 15.9134 6.31366C15.3433 5.8316 14.4997 5.91441 14.0292 6.49862L9.4384 12.1993L7.0788 9.8127Z" fill="white"/>
</svg>
