<svg xmlns="http://www.w3.org/2000/svg" viewBox="0 0 32 32">
  <path d="M24 0C19.593562 0 16 3.593562 16 8C16 9.6613873 16.568267 11.171408 17.4375 12.449219L16.791016 17.605469L21.599609 15.544922C22.363813 15.790484 23.151145 16 24 16C28.406438 16 32 12.406438 32 8C32 3.593562 28.406438 0 24 0 z M 24 2C27.325562 2 30 4.674438 30 8C30 11.325562 27.325562 14 24 14C23.233063 14 22.503407 13.851407 21.824219 13.585938L21.443359 13.435547L19.208984 14.392578L19.509766 11.990234L19.255859 11.662109C18.468407 10.645126 18 9.3845393 18 8C18 4.674438 20.674438 2 24 2 z M 23 4L23 9L25 9L25 4L23 4 z M 8 9C6.0833339 9 4.5185588 9.7547551 3.5019531 10.898438C2.4853474 12.042118 2 13.527778 2 15C2 16.472222 2.4853474 17.957881 3.5019531 19.101562C3.7812921 19.41582 4.1947617 19.61147 4.5527344 19.859375C1.8843013 21.158567 5.9211895e-16 23.841626 0 27L2 27C2 23.674438 4.674438 21 8 21C11.325562 21 14 23.674438 14 27L16 27C16 23.841626 14.115699 21.158567 11.447266 19.859375C11.805238 19.61147 12.218708 19.415819 12.498047 19.101562C13.514653 17.957881 14 16.472222 14 15C14 13.527778 13.514653 12.042119 12.498047 10.898438C11.481441 9.7547551 9.9166661 9 8 9 z M 23 10L23 12L25 12L25 10L23 10 z M 8 11C9.4166658 11 10.351893 11.495244 11.001953 12.226562C11.652013 12.957882 12 13.972222 12 15C12 16.027778 11.652013 17.042119 11.001953 17.773438C10.351893 18.504756 9.4166658 19 8 19C6.5833342 19 5.6481071 18.504756 4.9980469 17.773438C4.3479866 17.042119 4 16.027778 4 15C4 13.972222 4.3479866 12.957881 4.9980469 12.226562C5.6481071 11.495245 6.5833342 11 8 11 z" fill="#EFF4F9" />
</svg>