<svg xmlns="http://www.w3.org/2000/svg" viewBox="0 0 48 48">
  <path d="M22.191406 5C21.416325 5 20.659891 5.2573779 20.046875 5.7324219 A 1.50015 1.50015 0 0 0 20.046875 5.734375C18.246971 7.132124 14.748752 10.608655 12.359375 12.601562 A 1.50015 1.50015 0 0 0 12.328125 12.628906C10.847652 13.934781 9.6847516 15.077576 9.0117188 16.507812C8.3386857 17.93805 8.3705543 19.645293 9.0800781 21.267578 A 1.50015 1.50015 0 0 0 9.0878906 21.287109C9.9993456 23.294042 13.695099 30.290209 14 30.867188L14 34L8.5 34C6.0324991 34 4 36.032499 4 38.5C4 40.967501 6.0324991 43 8.5 43L15.253906 43 A 1.50015 1.50015 0 0 0 15.740234 43L39.5 43C41.967501 43 44 40.967501 44 38.5C44 36.032499 41.967501 34 39.5 34L34 34L34 25.214844C34.433862 24.269347 34.577078 23.944391 35.087891 22.841797C36.235884 20.363841 37.298161 18.100136 37.59375 17.371094C37.985219 16.468801 37.999357 15.634048 38.015625 14.917969C38.031945 14.199579 37.986328 13.615234 37.986328 13.615234 A 1.50015 1.50015 0 0 0 37.873047 13.148438C37.668567 11.018461 36.730848 8.8539691 36.380859 7.5722656C35.967184 6.0554554 34.570566 5 33.005859 5L22.191406 5 z M 22.191406 8L33.005859 8C33.243152 8 33.426004 8.1401384 33.486328 8.3613281C33.9881 10.198881 34.953247 12.623828 34.982422 13.765625 A 1.50015 1.50015 0 0 0 34.998047 13.945312C35.003347 14.022032 35.027045 14.346876 35.015625 14.849609C35.002945 15.40772 34.878606 16.095333 34.841797 16.179688 A 1.50015 1.50015 0 0 0 34.826172 16.21875C34.752562 16.40134 33.519734 19.090031 32.365234 21.582031C31.210734 24.074031 30.134098 26.368575 29.845703 27.083984C29.372474 28.258519 28.079673 28.810672 26.90625 28.337891C25.731715 27.864662 25.179563 26.571861 25.652344 25.398438C25.842088 24.92866 27.076822 22.224012 28.292969 19.292969 A 1.50015 1.50015 0 0 0 27.09375 17.001953 A 1.5001593 1.5001593 0 0 0 27 17L15.5 17 A 1.50015 1.50015 0 0 0 14 18.5L14 24.365234C13.048528 22.520935 12.130387 20.723461 11.826172 20.054688C11.361213 18.987424 11.389367 18.501717 11.726562 17.785156C12.065031 17.065893 12.926973 16.101032 14.3125 14.878906C16.898778 12.717453 20.565141 9.1306496 21.884766 8.1054688L21.886719 8.1035156C21.97521 8.0355976 22.079352 8 22.191406 8 z M 17 20L24.724609 20C23.879537 21.958741 23.124436 23.648156 22.871094 24.275391 A 1.50015 1.50015 0 0 0 22.869141 24.277344C21.789922 26.95592 23.107691 30.042323 25.785156 31.121094C27.589265 31.847983 29.563906 31.46883 31 30.337891L31 40L17 40L17 30.818359 A 1.50015 1.50015 0 0 0 17 30.285156L17 20 z M 8.5 37L14 37L14 40L8.5 40C7.6535009 40 7 39.346499 7 38.5C7 37.653501 7.6535009 37 8.5 37 z M 34 37L39.5 37C40.346499 37 41 37.653501 41 38.5C41 39.346499 40.346499 40 39.5 40L34 40L34 37 z" fill="#EFF4F9" />
</svg>