<svg xmlns="http://www.w3.org/2000/svg" viewBox="0 0 48 48"><path fill="#8E24AA" d="M38 19L35 13 32 19zM16 19L13 13 10 19z"/><path fill="#CE93D8" d="M18 15H30V24H18zM32 19H38V24H32zM10 19H16V24H10z"/><path fill="#E1BEE7" d="M37 18L37 24 11 24 11 18 5 18 5 43 43 43 43 18z"/><g><path fill="#9C27B0" d="M33 43H15c0-9 9-12 9-12S33 34 33 43zM43 18L40 12 37 18zM30 15L24 5 18 15zM11 18L8 12 5 18z"/></g><g><path fill="#8E24AA" d="M37 29L35.5 28 34 29 34 34 37 34zM14 29L12.5 28 11 29 11 34 14 34zM27 20L24 18 21 20 21 24 27 24z"/></g></svg>