<svg xmlns="http://www.w3.org/2000/svg" viewBox="0 0 32 32">
  <path d="M16 4L3 7L3 9L16 6L29 9L29 7 Z M 10 10C6.773438 10 3.625 11.3125 3.625 11.3125L3 11.59375L3 27L14.28125 27C14.628906 27.597656 15.261719 28 16 28C16.738281 28 17.371094 27.597656 17.71875 27L29 27L29 11.59375L28.375 11.3125C28.375 11.3125 25.226563 10 22 10C19.082031 10 16.519531 10.980469 16 11.1875C15.480469 10.980469 12.917969 10 10 10 Z M 10 12C11.933594 12 14 12.625 15 12.96875L15 24.09375C13.886719 23.726563 12.058594 23.21875 10 23.21875C7.898438 23.21875 6.1875 23.703125 5 24.09375L5 12.96875C5.769531 12.691406 7.800781 12 10 12 Z M 22 12C24.199219 12 26.230469 12.691406 27 12.96875L27 24.09375C25.8125 23.703125 24.101563 23.21875 22 23.21875C19.941406 23.21875 18.113281 23.726563 17 24.09375L17 12.96875C18 12.625 20.066406 12 22 12Z" fill="#EFF4F9" />
</svg>