<svg xmlns="http://www.w3.org/2000/svg" viewBox="0 0 32 32">
  <path d="M16 4C11.949219 4 8.359375 6.011719 6.1875 9.09375L7.8125 10.25C9.621094 7.679688 12.609375 6 16 6C21.535156 6 26 10.464844 26 16C26 21.535156 21.535156 26 16 26C12.609375 26 9.625 24.320313 7.8125 21.75L6.1875 22.90625C8.359375 25.988281 11.949219 28 16 28C22.617188 28 28 22.617188 28 16C28 9.382813 22.617188 4 16 4 Z M 8.65625 11.28125L4.65625 15.28125L3.96875 16L4.65625 16.71875L8.65625 20.71875L10.09375 19.28125L7.8125 17L20 17L20 15L7.8125 15L10.09375 12.71875Z" fill="#EFF4F9" />
</svg>