 <svg xmlns="http://www.w3.org/2000/svg" viewBox="0 0 48 48">
                        <path fill="#689f38"
                          d="M34,23c-1.7,0-3-1.3-3-3s1.3-3,3-3c2.8,0,3-1,3-1.7c0-0.5-0.4-1.3-2-1.3c-1.7,0-2.9,1.1-3,1.2 c-1.2,1.2-3.1,1.1-4.2-0.1c-1.1-1.2-1.1-3.1,0.1-4.2C28.2,10.5,31,8,35,8c5,0,8,3.6,8,7C43,19.9,39.5,23,34,23z" />
                        <path fill="#689f38"
                          d="M34,17c-1.7,0-3,1.3-3,3s1.3,3,3,3c3.7,0,4,1.1,4,1.5s0,1.5-3,1.5c-2.2,0-3.7-0.6-3.8-0.7 c-1.5-0.7-3.3,0-3.9,1.5c-0.7,1.5,0,3.3,1.5,4C29.1,31,31.5,32,35,32c6.6,0,9-4,9-7.5C44,22.2,43,17,34,17z" />
                        <path fill="#ffc107"
                          d="M29,41H16c-1.7,0-3-1.3-3-3s1.3-3,3-3h13c1.7,0,3,1.3,3,3S30.7,41,29,41z" />
                        <path fill="#ff3d00"
                          d="M11.5,30C9.6,30,8,28.4,8,26.5v-16C8,8.6,9.6,7,11.5,7c1.9,0,3.5,1.6,3.5,3.5v16 C15,28.4,13.4,30,11.5,30z" />
                        <path fill="#ff3d00"
                          d="M10 7.3L5.4 9.8C4.5 10.2 4 11.2 4 12.2 4 13.8 5.1 15 6.4 15h3.5L10 7.3zM16 30H7c-1.7 0-3-1.3-3-3s1.3-3 3-3h9c1.7 0 3 1.3 3 3S17.7 30 16 30z" />
                        <path fill="#ffc107"
                          d="M16,41c-0.9,0-1.7-0.4-2.3-1.1c-1.1-1.3-0.9-3.2,0.4-4.2c2.4-2,4.5-3.6,6.1-4.8 c4.3-3.3,4.8-3.8,4.8-5.4c0-0.4-0.1-2.5-3-2.5c-2.3,0-4.2,1.4-4.2,1.4c-1.3,1-3.2,0.8-4.2-0.5c-1-1.3-0.8-3.2,0.5-4.2 c0.3-0.3,3.5-2.6,7.8-2.6c5.8,0,9,4.4,9,8.5c0,4.7-2.7,6.8-7.2,10.2c-1.6,1.2-3.6,2.7-5.9,4.6C17.4,40.8,16.7,41,16,41z" />
                      </svg>