<svg xmlns="http://www.w3.org/2000/svg" viewBox="0 0 26 26">
  <path d="M13 1C6.382813 1 1 6.382813 1 13C1 19.617188 6.382813 25 13 25C19.617188 25 25 19.617188 25 13C25 6.382813 19.617188 1 13 1 Z M 13 3C18.535156 3 23 7.464844 23 13C23 18.535156 18.535156 23 13 23C7.464844 23 3 18.535156 3 13C3 7.464844 7.464844 3 13 3 Z M 12.90625 6C11.90625 6 10.90625 6.695313 10.90625 8.09375C10.90625 10.195313 12.011719 13.507813 12.3125 14.40625C12.613281 15.207031 13.394531 15.105469 13.59375 14.40625C13.894531 13.707031 15.007813 10.292969 14.90625 8.09375C14.90625 6.695313 13.90625 6 12.90625 6 Z M 13 17C12.101563 17 11.5 17.601563 11.5 18.5C11.5 19.300781 12.101563 20 13 20C13.898438 20 14.5 19.300781 14.5 18.5C14.5 17.601563 13.898438 17 13 17Z" fill="#EFF4F9" />
</svg>