<svg xmlns="http://www.w3.org/2000/svg" viewBox="0 0 48 48">
  <path d="M21.5 5C19.585045 5 18 6.5850452 18 8.5L18 14.880859L13.058594 16.400391C11.31815 16.935527 9.8314965 18.088164 8.8769531 19.638672 A 1.50015 1.50015 0 0 0 8.8691406 19.652344L2.2148438 30.726562 A 1.50015 1.50015 0 1 0 4.7851562 32.273438L11.431641 21.210938L11.435547 21.205078C12.009135 20.27664 12.900105 19.589701 13.941406 19.269531L18 18.019531L18 25.5C18 25.618933 18.013323 25.734034 18.025391 25.849609L15.734375 27.210938 A 1.50015 1.50015 0 1 0 17.265625 29.789062L20.255859 28.011719 A 1.50015 1.50015 0 0 0 20.876953 27.642578L26.513672 24.292969 A 1.50015 1.50015 0 0 0 26.552734 24.269531C27.190197 23.864016 28.000682 23.953287 28.533203 24.486328C29.075905 25.02903 29.147251 25.818553 28.767578 26.431641 A 1.50015 1.50015 0 0 0 28.539062 26.724609C28.525504 26.738338 28.5161 26.754181 28.501953 26.767578L16.130859 38.228516 A 1.50015 1.50015 0 0 0 16.123047 38.234375C14.916505 39.368504 13.325479 40 11.669922 40L3.5 40 A 1.50015 1.50015 0 1 0 3.5 43L11.669922 43C14.085061 43 16.409315 42.079302 18.169922 40.427734L18.173828 40.425781L30.505859 29L44.5 29 A 1.50015 1.50015 0 1 0 44.5 26L31.953125 26C32.06257 24.69685 31.644163 23.355098 30.654297 22.365234C29.896557 21.606755 28.920774 21.163794 27.908203 21.052734C26.895633 20.941674 25.847628 21.163039 24.943359 21.738281L21 24.082031L21 16.181641 A 1.50015 1.50015 0 0 0 21 15.773438L21 11C22.66 11 24 9.66 24 8L44.5 8 A 1.50015 1.50015 0 1 0 44.5 5L21.5 5 z M 37 10C35.041667 10 33.395258 10.984107 32.412109 12.335938C31.428961 13.687767 31 15.352273 31 17C31 18.647727 31.428961 20.312233 32.412109 21.664062C33.395258 23.015893 35.041667 24 37 24C38.958333 24 40.604742 23.015894 41.587891 21.664062C42.571039 20.312233 43 18.647727 43 17C43 15.352273 42.571039 13.687767 41.587891 12.335938C40.604742 10.984106 38.958333 10 37 10 z M 37 13C38.041666 13 38.645259 13.390893 39.162109 14.101562C39.67896 14.812233 40 15.897727 40 17C40 18.102273 39.67896 19.187767 39.162109 19.898438C38.645259 20.609107 38.041666 21 37 21C35.958334 21 35.354741 20.609107 34.837891 19.898438C34.32104 19.187767 34 18.102273 34 17C34 15.897727 34.32104 14.812233 34.837891 14.101562C35.354741 13.390894 35.958334 13 37 13 z M 25 15 A 2 2 0 0 0 25 19 A 2 2 0 0 0 25 15 z" fill="#F4F4EA" />
</svg>