<svg xmlns="http://www.w3.org/2000/svg" viewBox="0 0 64 64">
                        <linearGradient id="RX3zSxrOy6Pry9vJ_10gba" x1="32" x2="32" y1="12.167" y2="52.292"
                          gradientUnits="userSpaceOnUse" spreadMethod="reflect">
                          <stop offset="0" stop-color="#6dc7ff" />
                          <stop offset="1" stop-color="#e6abff" />
                        </linearGradient>
                        <path fill="url(#RX3zSxrOy6Pry9vJ_10gba)"
                          d="M42.836,32c6.138-7.359,10.559-15.375,7.548-18.385c-3.003-3.005-11.041,1.429-18.383,7.549 c-7.358-6.14-15.374-10.564-18.386-7.549c-3.01,3.01,1.41,11.026,7.548,18.384c-6.139,7.358-10.56,15.374-7.548,18.385 c0.667,0.667,1.579,0.969,2.675,0.969c3.854,0,9.981-3.74,15.711-8.519c5.721,4.768,11.863,8.515,15.718,8.515 c1.092-0.001,2.002-0.302,2.665-0.965C53.396,47.374,48.975,39.358,42.836,32z M48.971,48.971c-1.363,1.363-7.269-0.645-15.44-7.447 c0.73-0.641,1.452-1.292,2.155-1.953l-1.371-1.457c-0.79,0.743-1.558,1.433-2.315,2.096c-0.703-0.616-1.416-1.255-2.146-1.939 l-1.367,1.461c0.647,0.606,1.312,1.203,1.983,1.791c-8.168,6.804-14.073,8.817-15.44,7.448c-1.369-1.369,0.644-7.271,7.446-15.438 c0.64,0.729,1.292,1.449,1.954,2.151l1.457-1.371c-0.743-0.789-1.432-1.557-2.095-2.313c0.664-0.757,1.353-1.525,2.096-2.314 l-1.457-1.371c-0.661,0.703-1.314,1.422-1.954,2.152c-6.802-8.167-8.814-14.069-7.446-15.437c1.37-1.367,7.272,0.646,15.438,7.447 c-0.672,0.589-1.334,1.188-1.982,1.794l1.367,1.459c0.731-0.685,1.443-1.324,2.146-1.939c0.758,0.665,1.527,1.354,2.317,2.099 l1.371-1.457c-0.704-0.662-1.424-1.316-2.155-1.958c8.169-6.801,14.076-8.81,15.438-7.445c1.368,1.368-0.645,7.271-7.446,15.438 c-0.641-0.73-1.294-1.451-1.956-2.154l-1.457,1.371c0.744,0.79,1.434,1.559,2.098,2.316c-0.664,0.757-1.353,1.525-2.096,2.314 l1.457,1.371c0.661-0.703,1.314-1.422,1.954-2.152C48.327,41.7,50.34,47.602,48.971,48.971z" />
                        <linearGradient id="RX3zSxrOy6Pry9vJ_10gbb" x1="32" x2="32" y1="12.167" y2="52.292"
                          gradientUnits="userSpaceOnUse" spreadMethod="reflect">
                          <stop offset="0" stop-color="#6dc7ff" />
                          <stop offset="1" stop-color="#e6abff" />
                        </linearGradient>
                        <path fill="url(#RX3zSxrOy6Pry9vJ_10gbb)" d="M32 28A4 4 0 1 0 32 36A4 4 0 1 0 32 28Z" />
                        <linearGradient id="RX3zSxrOy6Pry9vJ_10gbc" x1="32" x2="32" y1="5.667" y2="58.846"
                          gradientUnits="userSpaceOnUse" spreadMethod="reflect">
                          <stop offset="0" stop-color="#1a6dff" />
                          <stop offset="1" stop-color="#c822ff" />
                        </linearGradient>
                        <path fill="url(#RX3zSxrOy6Pry9vJ_10gbc)"
                          d="M58,32c0-4.141-8.51-6.761-18.345-7.655C38.761,14.51,36.141,6,32,6s-6.761,8.51-7.655,18.345 C14.51,25.239,6,27.859,6,32s8.51,6.761,18.345,7.655C25.239,49.49,27.859,58,32,58s6.761-8.51,7.655-18.345 C49.49,38.761,58,36.141,58,32z M32,8c2.031,0,4.71,6,5.653,16.188C35.782,24.064,33.883,24,32,24s-3.782,0.064-5.653,0.188 C27.29,14,29.969,8,32,8z M38,32c0,2.052-0.072,3.982-0.193,5.807C35.982,37.928,34.052,38,32,38s-3.982-0.072-5.807-0.193 C26.072,35.982,26,34.052,26,32s0.072-3.982,0.193-5.807C28.018,26.072,29.948,26,32,26s3.982,0.072,5.807,0.193 C37.928,28.018,38,29.948,38,32z M8,32c0-2.031,6-4.71,16.188-5.653C24.064,28.218,24,30.117,24,32s0.064,3.782,0.188,5.653 C14,36.71,8,34.031,8,32z M32,56c-2.031,0-4.71-6-5.653-16.188C28.218,39.936,30.117,40,32,40s3.782-0.064,5.653-0.188 C36.71,50,34.031,56,32,56z M39.813,37.653C39.936,35.782,40,33.883,40,32s-0.064-3.782-0.188-5.653C50,27.29,56,29.969,56,32 S50,36.71,39.813,37.653z" />
                      </svg>