<svg xmlns="http://www.w3.org/2000/svg" viewBox="0 0 50 50">
  <path d="M25.875 3.40625C21.203125 3.492188 18.21875 5.378906 16.9375 8.3125C15.714844 11.105469 15.988281 14.632813 16.875 18.28125C16.398438 18.839844 16.019531 19.589844 16.15625 20.71875C16.304688 21.949219 16.644531 22.824219 17.125 23.4375C17.390625 23.773438 17.738281 23.804688 18.0625 23.96875C18.238281 25.015625 18.53125 26.0625 18.96875 26.9375C19.21875 27.441406 19.503906 27.90625 19.78125 28.28125C19.90625 28.449219 20.085938 28.546875 20.21875 28.6875C20.226563 29.921875 20.230469 30.949219 20.125 32.25C19.800781 33.035156 19.042969 33.667969 17.8125 34.28125C16.542969 34.914063 14.890625 35.5 13.21875 36.21875C11.546875 36.9375 9.828125 37.8125 8.46875 39.1875C7.109375 40.5625 6.148438 42.449219 6 44.9375L5.9375 46L46.0625 46L46 44.9375C45.851563 42.449219 44.886719 40.5625 43.53125 39.1875C42.175781 37.8125 40.476563 36.9375 38.8125 36.21875C37.148438 35.5 35.515625 34.914063 34.25 34.28125C33.035156 33.671875 32.269531 33.054688 31.9375 32.28125C31.828125 30.964844 31.835938 29.933594 31.84375 28.6875C31.976563 28.542969 32.15625 28.449219 32.28125 28.28125C32.554688 27.902344 32.816406 27.4375 33.0625 26.9375C33.488281 26.0625 33.796875 25.011719 33.96875 23.96875C34.28125 23.804688 34.617188 23.765625 34.875 23.4375C35.355469 22.824219 35.695313 21.949219 35.84375 20.71875C35.976563 19.625 35.609375 18.902344 35.15625 18.34375C35.644531 16.757813 36.269531 14.195313 36.0625 11.5625C35.949219 10.125 35.582031 8.691406 34.71875 7.5C33.929688 6.40625 32.648438 5.609375 31.03125 5.28125C29.980469 3.917969 28.089844 3.40625 25.90625 3.40625 Z M 25.90625 5.40625C25.917969 5.40625 25.925781 5.40625 25.9375 5.40625C27.949219 5.414063 29.253906 6.003906 29.625 6.65625L29.875 7.0625L30.34375 7.125C31.734375 7.316406 32.53125 7.878906 33.09375 8.65625C33.65625 9.433594 33.96875 10.519531 34.0625 11.71875C34.25 14.117188 33.558594 16.910156 33.125 18.21875L32.875 19L33.5625 19.40625C33.519531 19.378906 33.945313 19.667969 33.84375 20.5C33.726563 21.480469 33.492188 21.988281 33.3125 22.21875C33.132813 22.449219 33.039063 22.4375 33.03125 22.4375L32.1875 22.5L32.09375 23.3125C32 24.175781 31.652344 25.234375 31.25 26.0625C31.046875 26.476563 30.839844 26.839844 30.65625 27.09375C30.472656 27.347656 30.28125 27.488281 30.375 27.4375L29.84375 27.71875L29.84375 28.3125C29.84375 29.761719 29.785156 30.949219 29.9375 32.625L29.9375 32.75L30 32.875C30.570313 34.410156 31.890625 35.367188 33.34375 36.09375C34.796875 36.820313 36.464844 37.355469 38.03125 38.03125C39.597656 38.707031 41.03125 39.515625 42.09375 40.59375C42.9375 41.449219 43.46875 42.582031 43.75 44L8.25 44C8.53125 42.585938 9.058594 41.449219 9.90625 40.59375C10.972656 39.515625 12.425781 38.707031 14 38.03125C15.574219 37.355469 17.230469 36.820313 18.6875 36.09375C20.144531 35.367188 21.492188 34.410156 22.0625 32.875L22.125 32.625C22.277344 30.949219 22.21875 29.761719 22.21875 28.3125L22.21875 27.71875L21.6875 27.4375C21.777344 27.484375 21.5625 27.347656 21.375 27.09375C21.1875 26.839844 20.957031 26.476563 20.75 26.0625C20.335938 25.234375 19.996094 24.167969 19.90625 23.3125L19.8125 22.5L18.96875 22.4375C18.960938 22.4375 18.867188 22.449219 18.6875 22.21875C18.507813 21.988281 18.273438 21.480469 18.15625 20.5C18.058594 19.667969 18.480469 19.378906 18.4375 19.40625L19.09375 19L18.90625 18.28125C17.964844 14.65625 17.800781 11.363281 18.78125 9.125C19.757813 6.894531 21.75 5.492188 25.90625 5.40625Z" fill="#EFF4F9" />
</svg>